<svg xmlns="http://www.w3.org/2000/svg" viewBox="0 -40.32 154.08235 154.08235"><title>ALTER TECHNOLOGY TÜV NORD</title> <rect x="0" y="-40.32" width="154.08235" height="154.08235" fill="#001ED2" /> <path d="M91.58683,70.99214h18.8613v6.1845h-11.9882v5.1104h9.6406v5.6157h-9.6406v5.25h12.5332v6.1846h-19.4063v-28.3452Zm36.8887,6.1328h-5.7774v7.1582h5.7774c2.2285,0,3.5976-1.5869,3.5976-3.6123,0-2.2266-1.3691-3.5459-3.5976-3.5459m-12.6504-6.1328h13.3535c5.668,0,9.7188,4.2959,9.7188,9.4794,0,6.0738-5.0625,8.4683-5.0625,8.4683l6.0742,10.3965h-7.5391l-5.2344-9.1211h-4.4375v9.1211h-6.873v-28.3442Zm-83.1802,28.3452h-6.8735v-6.8711h6.8735v6.8711Zm.4522-28.3452l11.6933,28.3452h-7.6435l-7.9571-19.7798-7.7881,19.7798h-7.2285l11.6944-28.3452h7.2295Zm14.6914,28.3452v-28.3462h6.873v22.1616h12.0903v6.1846h-18.9633Zm40.3217-28.3452v6.1845h-8.2656v22.1607h-6.873v-22.1607h-8.2661v-6.1845h23.4047Z" fill="#fff" fill-rule="evenodd" /> </svg>